<svg width="272" height="154" viewBox="0 0 272 154" fill="none" xmlns="http://www.w3.org/2000/svg">
<path d="M21.76 72.952L70.784 98.68V109.048L5.888 75.768V70.264L70.784 36.984V47.48L21.76 72.952ZM122.318 25.208C120.654 28.664 116.558 30.2 113.102 28.664C109.518 27 108.11 23.032 109.646 19.448C110.542 17.656 111.95 16.504 113.614 16.12C115.15 15.864 113.23 13.56 109.006 13.56C103.502 13.56 100.174 20.472 100.174 47.864H114.254L113.87 49.784H100.174V94.328C100.174 101.24 101.326 104.056 105.934 105.08V107H81.614V105.08C86.478 103.928 86.606 100.728 86.606 94.328V49.784H78.414L78.286 47.864H86.606C86.606 19.192 93.774 11.768 108.878 11.768C115.278 11.768 120.142 15.48 121.422 17.4C122.83 19.448 123.342 22.776 122.318 25.208Z" fill="white"/>
<path d="M192.768 105.08V107H168.832V105.08C173.696 103.672 173.952 99.704 173.952 93.176V67.448C173.952 59.128 170.112 54.776 161.92 54.776C157.056 54.776 152.448 59 150.016 63.736V93.176C150.016 100.216 150.656 103.8 155.264 104.952V107H131.328V104.952C136.192 103.544 136.448 99.704 136.448 93.176V25.848C136.448 21.368 135.296 19.96 130.048 18.552V16.632L150.016 12.024V60.92C152.32 53.88 162.432 46.712 170.624 46.712C180.992 46.712 187.52 51.576 187.52 66.936V93.176C187.52 100.216 188.288 103.928 192.768 105.08ZM201.016 98.68L250.04 72.952L201.016 47.48V36.984L265.912 70.264V75.768L201.016 109.048V98.68Z" fill="white"/>
</svg>
